PathFileType	4	(X/Y/Z)	C:/Users/opensim2020/Desktop/walking_exp_matlab/subject06_walking16_straight_01.trc	
DataRate	CameraRate	NumFrames	NumMarkers	Units	OrigDataRate	OrigDataStartFrame	OrigNumFrames	
100.00	100.00	4	51	mm	100.00	871	333	
Frame#	Time	LFHD			RFHD			LBHD			RBHD			C7			T10			CLAV			STRN			RBAK			LSHO			LUPA			LELB			LFRM			LWRA			LWRB			LFIN			RSHO			RUPA			RELB			RFRM			RWRA			RWRB			RFIN			LASI			RASI			LPSI			RPSI			LTHI			LKNE			LTIB			LANK			LHEE			LTOE			RTHI			RKNE			RTIB			RANK			RHEE			RTOE			*39			*40			*41			*42			*43			*44			*45			*46			*47			*48			*49			*50			
		X1	Y1	Z1	X2	Y2	Z2	X3	Y3	Z3	X4	Y4	Z4	X5	Y5	Z5	X6	Y6	Z6	X7	Y7	Z7	X8	Y8	Z8	X9	Y9	Z9	X10	Y10	Z10	X11	Y11	Z11	X12	Y12	Z12	X13	Y13	Z13	X14	Y14	Z14	X15	Y15	Z15	X16	Y16	Z16	X17	Y17	Z17	X18	Y18	Z18	X19	Y19	Z19	X20	Y20	Z20	X21	Y21	Z21	X22	Y22	Z22	X23	Y23	Z23	X24	Y24	Z24	X25	Y25	Z25	X26	Y26	Z26	X27	Y27	Z27	X28	Y28	Z28	X29	Y29	Z29	X30	Y30	Z30	X31	Y31	Z31	X32	Y32	Z32	X33	Y33	Z33	X34	Y34	Z34	X35	Y35	Z35	X36	Y36	Z36	X37	Y37	Z37	X38	Y38	Z38	X39	Y39	Z39	X40	Y40	Z40	X41	Y41	Z41	X42	Y42	Z42	X43	Y43	Z43	X44	Y44	Z44	X45	Y45	Z45	X46	Y46	Z46	X47	Y47	Z47	X48	Y48	Z48	X49	Y49	Z49	X50	Y50	Z50	X51	Y51	Z51	

1	0.000	-998.66760	-1004.48956	1670.95667	-870.42212	-1014.16968	1649.03418	-1013.28949	-1138.17529	1615.24695	-884.70911	-1144.91675	1598.42395	-966.59216	-1142.68018	1457.10425	-974.37683	-1191.16272	1130.06592	-967.91827	-1032.22437	1378.40369	-982.84100	-998.06238	1201.97559	-890.32996	-1218.55542	1286.42151	-1127.84717	-1079.20776	1419.48218	-1207.15808	-1064.13525	1220.06104	-1222.76270	-1052.64417	1108.16455	-1231.99683	-967.65015	984.34357	-1169.42712	-865.33722	919.52655	-1216.72644	-905.49933	884.26306	-1202.98999	-829.73853	837.80426	-805.48346	-1074.51355	1404.77698	-724.22241	-1105.28967	1202.30017	-716.13330	-1091.54761	1080.63281	-702.21069	-1071.65637	961.53912	-736.23315	-1007.18335	825.84851	-696.65906	-1061.36047	823.80304	-696.44183	-1020.99780	749.77924	-1085.52808	-1019.52777	964.38629	-866.72675	-1014.06897	971.97552	-1056.28540	-1175.82263	991.15729	-889.36304	-1164.75574	1001.46216	-1151.13306	-1065.38843	645.29321	-1135.61865	-1041.19812	483.26346	-1118.93713	-1187.87354	273.66000	-1078.49182	-1264.42700	124.90695	-1025.48206	-1298.78064	121.39262	-1105.66711	-1151.68164	45.00552	-813.72699	-1078.47351	640.80682	-838.80878	-1081.44348	515.45416	-853.23114	-1124.82092	251.15073	-907.67761	-1117.52307	64.73743	-955.14349	-1151.09265	40.31407	-908.82202	-957.86725	34.52726	-944.38892	-1110.61768	1702.64417																																	 
2	0.010	-997.65991	-999.59839	1670.87634	-869.96680	-1009.54010	1649.32239	-1012.64282	-1133.83826	1615.48242	-883.97815	-1140.33142	1598.89709	-965.67621	-1138.43408	1457.34692	-973.34644	-1187.04736	1130.37012	-966.96149	-1028.15588	1378.54663	-982.05206	-994.13104	1202.08435	-889.20117	-1214.32532	1286.78882	-1127.12842	-1075.47498	1419.48108	-1206.43030	-1061.75732	1219.98853	-1221.57129	-1050.73926	1107.81055	-1231.87134	-967.64832	982.60260	-1170.37085	-865.91162	915.85980	-1217.50708	-907.15424	881.43756	-1204.35974	-832.24097	833.29816	-804.67615	-1069.98828	1405.03491	-723.10095	-1100.51819	1202.51697	-714.96289	-1086.59790	1080.97058	-701.25287	-1065.80237	961.95380	-735.70428	-1000.39362	826.80713	-696.03827	-1054.42566	824.20935	-695.88715	-1013.54877	750.57373	-1084.76538	-1015.48975	964.78705	-866.21082	-1010.01587	971.94775	-1055.65405	-1171.80444	991.61560	-888.69006	-1160.83057	1001.66217	-1150.62415	-1058.31287	645.97412	-1134.40027	-1032.22717	484.31067	-1118.64648	-1174.17847	271.45868	-1078.92822	-1246.83350	120.43937	-1025.99963	-1281.20410	115.76328	-1105.97278	-1129.20288	45.71585	-813.52960	-1075.85449	640.73248	-838.87720	-1079.35889	515.24255	-853.26440	-1123.86633	251.23376	-907.77264	-1117.39795	64.81905	-955.20129	-1151.06860	40.47949	-909.01343	-957.85699	34.42246	-943.83777	-1106.03210	1703.11157																																	 
3	0.020	-997.88788	-995.50055	1671.17603	-869.56635	-1004.96252	1649.64148	-1012.00433	-1129.45752	1615.75085	-883.47064	-1135.36682	1599.52942	-964.78180	-1134.17615	1457.58679	-972.33618	-1182.97583	1130.66760	-966.26740	-1024.00488	1378.68115	-981.18524	-990.16724	1202.26050	-888.13501	-1210.00916	1287.11755	-1126.40283	-1071.74463	1419.44885	-1205.45898	-1059.01428	1219.75122	-1220.68042	-1048.79199	1107.40527	-1231.94080	-967.74164	980.77252	-1171.51648	-866.74420	911.92316	-1218.42871	-909.16632	878.45898	-1206.26477	-834.91577	828.92645	-803.91223	-1065.52051	1405.27917	-722.08698	-1095.80676	1202.77197	-713.95740	-1081.37976	1081.15552	-700.31909	-1060.05383	962.36206	-735.22064	-993.76849	827.72339	-695.28912	-1047.69617	824.77429	-695.36261	-1006.33246	751.49951	-1084.12097	-1011.51080	965.14063	-865.63519	-1006.05438	972.20331	-1055.10608	-1167.79138	992.08813	-888.07086	-1156.96423	1001.85724	-1150.17798	-1051.30408	646.70190	-1133.17297	-1023.29565	485.42902	-1118.25708	-1160.20215	269.12967	-1079.19214	-1228.75208	116.03470	-1026.29150	-1263.12524	110.14424	-1106.61108	-1108.98010	45.22906	-813.37219	-1073.41870	640.70740	-838.53119	-1077.42554	515.26099	-853.32184	-1122.92383	251.33287	-907.84027	-1117.26990	64.89304	-955.24896	-1151.01282	40.51171	-909.12695	-957.79120	34.33955	-943.45660	-1101.46350	1703.40234																																	 
4	0.030	-997.09192	-990.76831	1671.09106	-869.28546	-1000.25793	1649.90808	-1011.40765	-1125.11902	1615.95447	-882.71301	-1131.19055	1599.71387	-963.92767	-1129.91467	1457.83374	-971.33575	-1178.87646	1130.94946	-965.56763	-1019.90094	1378.83105	-980.47754	-986.20483	1202.33215	-887.06390	-1205.77576	1287.45850	-1125.74280	-1068.04688	1419.51086	-1205.30884	-1057.16077	1219.71191	-1219.55737	-1046.98376	1107.16760	-1231.93433	-968.14343	978.90466	-1173.25854	-868.04669	907.89594	-1219.39050	-911.52142	875.40112	-1208.24939	-838.22632	824.27802	-803.19916	-1060.93628	1405.48840	-721.13098	-1091.09155	1203.01611	-712.83191	-1076.64526	1081.52209	-699.46338	-1054.33337	962.79352	-734.73431	-987.15900	828.73376	-694.69824	-1040.85059	825.28229	-695.04541	-998.82837	752.30658	-1083.39819	-1007.49231	965.50842	-865.06635	-1002.35248	971.82721	-1054.57312	-1163.80420	992.51575	-887.38019	-1153.35376	1002.09589	-1149.74438	-1044.47192	647.49310	-1132.01294	-1014.41724	486.58057	-1117.79797	-1146.08911	266.91519	-1079.21277	-1210.42261	111.73548	-1026.40674	-1244.59534	104.64447	-1106.90027	-1088.53308	44.64796	-813.24054	-1071.06616	640.53857	-838.62372	-1075.55359	515.02484	-853.29773	-1122.16956	251.42734	-907.89844	-1117.26367	64.95983	-955.28766	-1151.05054	40.64162	-908.88593	-957.85150	34.33879	-943.10931	-1096.91125	1703.60876																																	 
